<?xml version="1.0" encoding="UTF-8" standalone="no"?>
<!DOCTYPE svg PUBLIC "-//W3C//DTD SVG 1.1//EN" "http://www.w3.org/Graphics/SVG/1.1/DTD/svg11.dtd">
<svg width="100%" height="100%" viewBox="0 0 32 32" version="1.1" xmlns="http://www.w3.org/2000/svg" xmlns:xlink="http://www.w3.org/1999/xlink" xml:space="preserve" xmlns:serif="http://www.serif.com/" style="fill-rule:evenodd;clip-rule:evenodd;stroke-linejoin:round;stroke-miterlimit:2;">
    <g transform="matrix(1.26472,0,0,2,-3.55271e-15,0)">
        <path d="M25.302,2.5C25.302,1.12 23.531,0 21.349,0L3.953,0C1.771,0 0,1.12 0,2.5L0,13.5C0,14.88 1.771,16 3.953,16L21.349,16C23.531,16 25.302,14.88 25.302,13.5L25.302,2.5Z" style="fill:rgb(255,75,92);"/>
    </g>
    <g transform="matrix(1,0,0,1,-8,0)">
        <path d="M27.5,12.5L27.5,7L20.5,7L20.5,12.5L15,12.5L15,19.5L20.5,19.5L20.5,25L27.5,25L27.5,19.5L33,19.5L33,12.5L27.5,12.5Z" style="fill:white;"/>
    </g>
</svg>
