<?xml version="1.0" encoding="UTF-8" standalone="no"?>
<!DOCTYPE svg PUBLIC "-//W3C//DTD SVG 1.1//EN" "http://www.w3.org/Graphics/SVG/1.1/DTD/svg11.dtd">
<svg width="100%" height="100%" viewBox="0 0 48 32" version="1.1" xmlns="http://www.w3.org/2000/svg" xmlns:xlink="http://www.w3.org/1999/xlink" xml:space="preserve" xmlns:serif="http://www.serif.com/" style="fill-rule:evenodd;clip-rule:evenodd;stroke-linejoin:round;stroke-miterlimit:2;">
    <g transform="matrix(0.632365,0,0,2,0,0)">
        <path d="M25.302,0L7.907,0C3.543,0 0,1.12 0,2.5L0,13.5C0,14.88 3.543,16 7.907,16L25.302,16L25.302,0Z" style="fill:rgb(255,150,11);"/>
    </g>
    <g transform="matrix(0.632365,0,0,2,32,0)">
        <path d="M25.302,2.5C25.302,1.12 21.759,0 17.395,0L0,0L0,16L17.395,16C21.759,16 25.302,14.88 25.302,13.5L25.302,2.5Z" style="fill:rgb(41,162,0);"/>
    </g>
    <g transform="matrix(0.632365,0,0,2,16,0)">
        <rect x="0" y="0" width="25.302" height="16" style="fill:white;"/>
    </g>
</svg>
