<?xml version="1.0" encoding="UTF-8" standalone="no"?>
<!DOCTYPE svg PUBLIC "-//W3C//DTD SVG 1.1//EN" "http://www.w3.org/Graphics/SVG/1.1/DTD/svg11.dtd">
<svg width="100%" height="100%" viewBox="0 0 48 32" version="1.1" xmlns="http://www.w3.org/2000/svg" xmlns:xlink="http://www.w3.org/1999/xlink" xml:space="preserve" xmlns:serif="http://www.serif.com/" style="fill-rule:evenodd;clip-rule:evenodd;stroke-linejoin:round;stroke-miterlimit:2;">
    <g transform="matrix(1.89709,0,0,2,-3.55271e-15,0)">
        <path d="M25.302,2.5C25.302,1.12 24.121,0 22.666,0L2.636,0C1.181,0 0,1.12 0,2.5L0,13.5C0,14.88 1.181,16 2.636,16L22.666,16C24.121,16 25.302,14.88 25.302,13.5L25.302,2.5Z" style="fill:rgb(255,75,92);"/>
        <g transform="matrix(0.527123,0,0,0.5,-4.74411,-3)">
            <path d="M18.5,11L19.735,14.8L23.731,14.8L20.498,17.149L21.733,20.95L18.5,18.601L15.267,20.95L16.502,17.149L13.269,14.8L17.265,14.8L18.5,11Z" style="fill:rgb(255,202,83);"/>
        </g>
        <g transform="matrix(0.143761,0,0,0.136364,7.61933,1.80902)">
            <path d="M18.5,11L19.735,14.8L23.731,14.8L20.498,17.149L21.733,20.95L18.5,18.601L15.267,20.95L16.502,17.149L13.269,14.8L17.265,14.8L18.5,11Z" style="fill:rgb(255,202,83);"/>
        </g>
        <g transform="matrix(0.143761,0,0,0.136364,5.85736,0.137715)">
            <path d="M18.5,11L19.735,14.8L23.731,14.8L20.498,17.149L21.733,20.95L18.5,18.601L15.267,20.95L16.502,17.149L13.269,14.8L17.265,14.8L18.5,11Z" style="fill:rgb(255,202,83);"/>
        </g>
        <g transform="matrix(0.143761,0,0,0.136364,7.61933,3.80902)">
            <path d="M18.5,11L19.735,14.8L23.731,14.8L20.498,17.149L21.733,20.95L18.5,18.601L15.267,20.95L16.502,17.149L13.269,14.8L17.265,14.8L18.5,11Z" style="fill:rgb(255,202,83);"/>
        </g>
        <g transform="matrix(0.143761,0,0,0.136364,5.85736,5.48032)">
            <path d="M18.5,11L19.735,14.8L23.731,14.8L20.498,17.149L21.733,20.95L18.5,18.601L15.267,20.95L16.502,17.149L13.269,14.8L17.265,14.8L18.5,11Z" style="fill:rgb(255,202,83);"/>
        </g>
    </g>
</svg>
