<?xml version="1.0" encoding="UTF-8" standalone="no"?>
<!DOCTYPE svg PUBLIC "-//W3C//DTD SVG 1.1//EN" "http://www.w3.org/Graphics/SVG/1.1/DTD/svg11.dtd">
<svg width="100%" height="100%" viewBox="0 0 48 32" version="1.1" xmlns="http://www.w3.org/2000/svg" xmlns:xlink="http://www.w3.org/1999/xlink" xml:space="preserve" xmlns:serif="http://www.serif.com/" style="fill-rule:evenodd;clip-rule:evenodd;stroke-linejoin:round;stroke-miterlimit:2;">
    <g transform="matrix(1.89709,0,0,2,0,0)">
        <path d="M25.302,2.5C25.302,1.12 24.121,0 22.666,0L2.636,0C1.181,0 0,1.12 0,2.5L0,13.5C0,14.88 1.181,16 2.636,16L22.666,16C24.121,16 25.302,14.88 25.302,13.5L25.302,2.5Z" style="fill:rgb(255,75,92);"/>
    </g>
    <path d="M29.924,20.869C28.259,23.674 25.198,25.556 21.701,25.556C16.427,25.556 12.145,21.274 12.145,16C12.145,10.726 16.427,6.444 21.701,6.444C25.198,6.444 28.259,8.326 29.924,11.131C28.469,9.255 26.193,8.048 23.638,8.048C19.249,8.048 15.686,11.611 15.686,16C15.686,20.389 19.249,23.952 23.638,23.952C26.193,23.952 28.469,22.745 29.924,20.869Z" style="fill:white;"/>
    <g transform="matrix(0.98562,-0.168974,0.168974,0.98562,-0.863677,10.473)">
        <path d="M32.89,8.678L33.494,10.536L35.448,10.536L33.867,11.685L34.471,13.544L32.89,12.395L31.309,13.544L31.913,11.685L30.332,10.536L32.286,10.536L32.89,8.678Z" style="fill:white;"/>
    </g>
</svg>
